<svg width="18" height="18" viewBox="0 0 18 18" fill="none" xmlns="http://www.w3.org/2000/svg">
<path d="M12.6332 10.6666C12.6998 10.1166 12.7498 9.5666 12.7498 8.99993C12.7498 8.43326 12.6998 7.88326 12.6332 7.33326H15.4498C15.5832 7.8666 15.6665 8.42493 15.6665 8.99993C15.6665 9.57493 15.5832 10.1333 15.4498 10.6666H12.6332ZM11.1582 15.2999C11.6582 14.3749 12.0415 13.3749 12.3082 12.3333H14.7665C13.9665 13.7083 12.6915 14.7749 11.1582 15.2999ZM10.9498 10.6666H7.04984C6.9665 10.1166 6.9165 9.5666 6.9165 8.99993C6.9165 8.43326 6.9665 7.87493 7.04984 7.33326H10.9498C11.0248 7.87493 11.0832 8.43326 11.0832 8.99993C11.0832 9.5666 11.0248 10.1166 10.9498 10.6666ZM8.99984 15.6333C8.30817 14.6333 7.74984 13.5249 7.40817 12.3333H10.5915C10.2498 13.5249 9.6915 14.6333 8.99984 15.6333ZM5.6665 5.6666H3.23317C4.02484 4.28326 5.30817 3.2166 6.83317 2.69993C6.33317 3.62493 5.95817 4.62493 5.6665 5.6666ZM3.23317 12.3333H5.6665C5.95817 13.3749 6.33317 14.3749 6.83317 15.2999C5.30817 14.7749 4.02484 13.7083 3.23317 12.3333ZM2.54984 10.6666C2.4165 10.1333 2.33317 9.57493 2.33317 8.99993C2.33317 8.42493 2.4165 7.8666 2.54984 7.33326H5.3665C5.29984 7.88326 5.24984 8.43326 5.24984 8.99993C5.24984 9.5666 5.29984 10.1166 5.3665 10.6666H2.54984ZM8.99984 2.35826C9.6915 3.35826 10.2498 4.47493 10.5915 5.6666H7.40817C7.74984 4.47493 8.30817 3.35826 8.99984 2.35826ZM14.7665 5.6666H12.3082C12.0415 4.62493 11.6582 3.62493 11.1582 2.69993C12.6915 3.22493 13.9665 4.28326 14.7665 5.6666ZM8.99984 0.666595C4.3915 0.666595 0.666504 4.4166 0.666504 8.99993C0.666504 11.2101 1.54448 13.3297 3.10728 14.8925C3.8811 15.6663 4.79976 16.2801 5.81081 16.6989C6.82186 17.1177 7.90549 17.3333 8.99984 17.3333C11.21 17.3333 13.3296 16.4553 14.8924 14.8925C16.4552 13.3297 17.3332 11.2101 17.3332 8.99993C17.3332 7.90558 17.1176 6.82195 16.6988 5.8109C16.28 4.79985 15.6662 3.88119 14.8924 3.10737C14.1186 2.33355 13.1999 1.71972 12.1889 1.30093C11.1778 0.882144 10.0942 0.666595 8.99984 0.666595Z" fill="#ADBFDF"/>
</svg>
